<svg width="24" height="24" viewBox="0 0 24 24" fill="none" xmlns="http://www.w3.org/2000/svg">
<path d="M9.2139 11.0709C9.2139 11.8097 9.5074 12.5183 10.0298 13.0407C10.5522 13.5631 11.2608 13.8566 11.9996 13.8566C12.7384 13.8566 13.447 13.5631 13.9694 13.0407C14.4918 12.5183 14.7853 11.8097 14.7853 11.0709C14.7853 10.3321 14.4918 9.62351 13.9694 9.10108C13.447 8.57866 12.7384 8.28517 11.9996 8.28517C11.2608 8.28517 10.5522 8.57866 10.0298 9.10108C9.5074 9.62351 9.2139 10.3321 9.2139 11.0709Z" stroke="#FF6D00" stroke-linecap="round" stroke-linejoin="round"/>
<path d="M17.2525 16.3238L13.3126 20.2637C12.9644 20.6116 12.4923 20.807 12.0001 20.807C11.5079 20.807 11.0358 20.6116 10.6875 20.2637L6.74669 16.3238C5.70783 15.2849 5.00036 13.9612 4.71376 12.5203C4.42716 11.0793 4.57429 9.58564 5.13655 8.22827C5.69881 6.8709 6.65095 5.71074 7.87257 4.89449C9.09418 4.07825 10.5304 3.64258 11.9996 3.64258C13.4688 3.64258 14.9051 4.07825 16.1267 4.89449C17.3483 5.71074 18.3004 6.8709 18.8627 8.22827C19.425 9.58564 19.5721 11.0793 19.2855 12.5203C18.9989 13.9612 18.2914 15.2849 17.2525 16.3238Z" stroke="#FF6D00" stroke-linecap="round" stroke-linejoin="round"/>
</svg>
