<svg width="27" height="20" viewBox="0 0 27 20" fill="none" xmlns="http://www.w3.org/2000/svg">
<path fill-rule="evenodd" clip-rule="evenodd" d="M0.329346 0H26.996V20H0.329346V0Z" fill="#E31D1C"/>
<path d="M0.329346 1.66667V3.33333H26.996V1.66667H0.329346Z" fill="#F7FCFF"/>
<path d="M0.329346 5V6.66667H26.996V5H0.329346Z" fill="#F7FCFF"/>
<path d="M0.329346 10V8.33333H26.996V10H0.329346Z" fill="#F7FCFF"/>
<path d="M0.329346 11.6667V13.3333H26.996V11.6667H0.329346Z" fill="#F7FCFF"/>
<path d="M0.329346 16.6667V15H26.996V16.6667H0.329346Z" fill="#F7FCFF"/>
<path d="M0.329346 20V18.3333H26.996V20H0.329346Z" fill="#F7FCFF"/>
<path d="M0.329346 0H15.3293V11.6667H0.329346V0Z" fill="#2E42A5"/>
<path fill-rule="evenodd" clip-rule="evenodd" d="M2.06271 3.62296L2.94591 3.00775L3.631 3.50097H3.2431L4.02755 4.1948L3.7626 5.16763H3.34762L2.94467 4.27414L2.60103 5.16763H1.57644L2.36088 5.86146L2.06271 6.9563L2.94591 6.34108L3.631 6.8343H3.2431L4.02755 7.52813L3.7626 8.50097H3.34762L2.94467 7.60747L2.60103 8.50097H1.57644L2.36088 9.19479L2.06271 10.2896L2.94591 9.67441L3.80046 10.2896L3.53478 9.19479L4.22106 8.50097H3.90451L4.61257 8.00775L5.29767 8.50097H4.90977L5.69422 9.19479L5.39604 10.2896L6.27924 9.67441L7.1338 10.2896L6.86811 9.19479L7.55439 8.50097H7.23784L7.94591 8.00775L8.63101 8.50097H8.2431L9.02755 9.19479L8.72937 10.2896L9.61257 9.67441L10.4671 10.2896L10.2014 9.19479L10.8877 8.50097H10.5712L11.2792 8.00775L11.9643 8.50097H11.5764L12.3609 9.19479L12.0627 10.2896L12.9459 9.67441L13.8005 10.2896L13.5348 9.19479L14.2211 8.50097H13.3476L12.9447 7.60747L12.601 8.50097H12.1042L11.8681 7.52813L12.5544 6.8343H12.2378L12.9459 6.34108L13.8005 6.9563L13.5348 5.86146L14.2211 5.16763H13.3476L12.9447 4.27414L12.601 5.16763H12.1042L11.8681 4.1948L12.5544 3.50097H12.2378L12.9459 3.00775L13.8005 3.62296L13.5348 2.52813L14.2211 1.8343H13.3476L12.9447 0.940806L12.601 1.8343H11.5764L12.3609 2.52813L12.0959 3.50097H11.681L11.278 2.60747L10.9344 3.50097H10.4375L10.2014 2.52813L10.8877 1.8343H10.0143L9.61134 0.940806L9.2677 1.8343H8.2431L9.02755 2.52813L8.7626 3.50097H8.34762L7.94467 2.60747L7.60103 3.50097H7.10419L6.86811 2.52813L7.55439 1.8343H6.68095L6.27801 0.940806L5.93436 1.8343H4.90977L5.69422 2.52813L5.42927 3.50097H5.01429L4.61134 2.60747L4.2677 3.50097H3.77086L3.53478 2.52813L4.22106 1.8343H3.34762L2.94467 0.940806L2.60103 1.8343H1.57644L2.36088 2.52813L2.06271 3.62296ZM12.0959 6.8343L12.3609 5.86146L11.5764 5.16763H11.9643L11.2792 4.67441L10.5712 5.16763H10.8877L10.2014 5.86146L10.4375 6.8343H10.9344L11.278 5.94081L11.681 6.8343H12.0959ZM10.2977 6.8343L9.61257 6.34108L8.90451 6.8343H9.22106L8.53478 7.52813L8.77086 8.50097H9.2677L9.61134 7.60747L10.0143 8.50097H10.4293L10.6942 7.52813L9.90977 6.8343H10.2977ZM7.36088 7.52813L7.09593 8.50097H6.68095L6.27801 7.60747L5.93436 8.50097H5.43752L5.20144 7.52813L5.88772 6.8343H5.57118L6.27924 6.34108L6.96434 6.8343H6.57644L7.36088 7.52813ZM7.60103 6.8343H7.10419L6.86811 5.86146L7.55439 5.16763H7.23784L7.94591 4.67441L8.63101 5.16763H8.2431L9.02755 5.86146L8.7626 6.8343H8.34762L7.94467 5.94081L7.60103 6.8343ZM5.42927 6.8343L5.69422 5.86146L4.90977 5.16763H5.29767L4.61257 4.67441L3.90451 5.16763H4.22106L3.53478 5.86146L3.77086 6.8343H4.2677L4.61134 5.94081L5.01429 6.8343H5.42927ZM10.6942 4.1948L10.4293 5.16763H10.0143L9.61134 4.27414L9.2677 5.16763H8.77086L8.53478 4.1948L9.22106 3.50097H8.90451L9.61257 3.00775L10.2977 3.50097H9.90977L10.6942 4.1948ZM6.96434 3.50097L6.27924 3.00775L5.57118 3.50097H5.88772L5.20144 4.1948L5.43752 5.16763H5.93436L6.27801 4.27414L6.68095 5.16763H7.09593L7.36088 4.1948L6.57644 3.50097H6.96434Z" fill="#F7FCFF"/>
</svg>
