<svg width="177" height="46" viewBox="0 0 177 46" fill="none" xmlns="http://www.w3.org/2000/svg">
<path d="M6.00928 20.1724C6.00928 11.8881 12.725 5.17236 21.0093 5.17236H46.0093V30.1724C46.0093 38.4566 39.2935 45.1724 31.0093 45.1724H6.00928V20.1724Z" fill="#013742"/>
<path d="M0.496094 15.8276C0.496094 7.81951 6.98797 1.32764 14.9961 1.32764H39.4961V25.8276C39.4961 33.8358 33.0042 40.3276 24.9961 40.3276H0.496094V15.8276Z" fill="#FF6D00" stroke="white"/>
<path d="M62.6733 18.8276H59.1213L55.3613 13.1316V18.8276H51.8093V7.49964H55.3613L59.1213 13.2916V7.49964H62.6733V18.8276ZM71.542 17.1156H67.766L67.206 18.8276H63.478L67.622 7.49964H71.718L75.846 18.8276H72.102L71.542 17.1156ZM70.678 14.4436L69.654 11.2916L68.63 14.4436H70.678ZM87.517 18.8276H83.965L80.205 13.1316V18.8276H76.653V7.49964H80.205L83.965 13.2916V7.49964H87.517V18.8276ZM94.6418 18.9396C93.5751 18.9396 92.5938 18.689 91.6978 18.1876C90.8124 17.6863 90.1084 16.993 89.5858 16.1076C89.0631 15.2223 88.8018 14.225 88.8018 13.1156C88.8018 12.0063 89.0631 11.009 89.5858 10.1236C90.1084 9.2383 90.8124 8.5503 91.6978 8.05964C92.5938 7.5583 93.5751 7.30764 94.6418 7.30764C95.7084 7.30764 96.6844 7.5583 97.5698 8.05964C98.4551 8.5503 99.1538 9.2383 99.6658 10.1236C100.188 11.009 100.45 12.0063 100.45 13.1156C100.45 14.225 100.188 15.2223 99.6658 16.1076C99.1538 16.993 98.4498 17.6863 97.5538 18.1876C96.6684 18.689 95.6978 18.9396 94.6418 18.9396ZM94.6418 15.6276C95.3458 15.6276 95.8898 15.4036 96.2738 14.9556C96.6578 14.497 96.8498 13.8836 96.8498 13.1156C96.8498 12.337 96.6578 11.7236 96.2738 11.2756C95.8898 10.817 95.3458 10.5876 94.6418 10.5876C93.9271 10.5876 93.3778 10.817 92.9938 11.2756C92.6098 11.7236 92.4178 12.337 92.4178 13.1156C92.4178 13.8836 92.6098 14.497 92.9938 14.9556C93.3778 15.4036 93.9271 15.6276 94.6418 15.6276ZM112.45 7.49964V10.3156H108.002V11.8836H111.202V14.5556H108.002V18.8276H104.45V7.49964H112.45ZM117.205 7.49964V18.8276H113.653V7.49964H117.205ZM129.673 18.8276H126.121L122.361 13.1316V18.8276H118.809V7.49964H122.361L126.121 13.2916V7.49964H129.673V18.8276ZM138.542 17.1156H134.766L134.206 18.8276H130.478L134.622 7.49964H138.718L142.846 18.8276H139.102L138.542 17.1156ZM137.678 14.4436L136.654 11.2916L135.63 14.4436H137.678ZM154.517 18.8276H150.965L147.205 13.1316V18.8276H143.653V7.49964H147.205L150.965 13.2916V7.49964H154.517V18.8276ZM155.802 13.1476C155.802 12.0276 156.026 11.0303 156.474 10.1556C156.932 9.28097 157.583 8.60364 158.426 8.12364C159.268 7.63297 160.26 7.38764 161.402 7.38764C162.383 7.38764 163.258 7.5743 164.026 7.94764C164.804 8.3103 165.434 8.82764 165.914 9.49964C166.404 10.1716 166.73 10.9556 166.89 11.8516H163.146C162.975 11.4783 162.73 11.1903 162.41 10.9876C162.1 10.7743 161.743 10.6676 161.338 10.6676C160.74 10.6676 160.266 10.8916 159.914 11.3396C159.572 11.7876 159.402 12.3903 159.402 13.1476C159.402 13.905 159.572 14.5076 159.914 14.9556C160.266 15.4036 160.74 15.6276 161.338 15.6276C161.743 15.6276 162.1 15.5263 162.41 15.3236C162.73 15.1103 162.975 14.817 163.146 14.4436H166.89C166.73 15.3396 166.404 16.1236 165.914 16.7956C165.434 17.4676 164.804 17.9903 164.026 18.3636C163.258 18.7263 162.383 18.9076 161.402 18.9076C160.26 18.9076 159.268 18.6676 158.426 18.1876C157.583 17.697 156.932 17.0143 156.474 16.1396C156.026 15.265 155.802 14.2676 155.802 13.1476ZM171.721 10.3316V11.7236H175.241V14.3956H171.721V15.9956H175.721V18.8276H168.169V7.49964H175.721V10.3316H171.721Z" fill="#013742"/>
<path d="M54.4098 28.0095C54.38 27.7576 54.259 27.562 54.0469 27.4228C53.8348 27.2836 53.5746 27.214 53.2664 27.214C53.041 27.214 52.8438 27.2505 52.6748 27.3234C52.5074 27.3963 52.3765 27.4966 52.282 27.6242C52.1892 27.7518 52.1428 27.8968 52.1428 28.0592C52.1428 28.1951 52.1751 28.3119 52.2397 28.4097C52.306 28.5058 52.3906 28.5862 52.4933 28.6508C52.596 28.7138 52.7038 28.766 52.8165 28.8074C52.9291 28.8472 53.0327 28.8795 53.1272 28.9043L53.6442 29.0435C53.7768 29.0783 53.9243 29.1264 54.0867 29.1877C54.2508 29.249 54.4074 29.3327 54.5565 29.4388C54.7073 29.5432 54.8316 29.6774 54.9294 29.8415C55.0272 30.0055 55.076 30.2069 55.076 30.4455C55.076 30.7206 55.004 30.9692 54.8598 31.1913C54.7173 31.4133 54.5084 31.5898 54.2334 31.7207C53.9599 31.8517 53.6276 31.9171 53.2366 31.9171C52.872 31.9171 52.5563 31.8583 52.2895 31.7406C52.0243 31.623 51.8155 31.4589 51.663 31.2484C51.5122 31.038 51.4269 30.7935 51.407 30.5151H52.0434C52.0599 30.7074 52.1246 30.8665 52.2373 30.9924C52.3516 31.1167 52.4958 31.2095 52.6698 31.2708C52.8455 31.3305 53.0344 31.3603 53.2366 31.3603C53.4719 31.3603 53.6832 31.3222 53.8704 31.246C54.0577 31.1681 54.206 31.0604 54.3154 30.9228C54.4248 30.7836 54.4794 30.6212 54.4794 30.4356C54.4794 30.2666 54.4322 30.129 54.3378 30.0229C54.2433 29.9169 54.119 29.8307 53.9649 29.7644C53.8108 29.6981 53.6442 29.6401 53.4652 29.5904L52.8388 29.4114C52.4411 29.2971 52.1262 29.1339 51.8942 28.9217C51.6622 28.7096 51.5462 28.432 51.5462 28.089C51.5462 27.804 51.6233 27.5554 51.7774 27.3433C51.9332 27.1295 52.142 26.9638 52.4038 26.8461C52.6673 26.7268 52.9615 26.6671 53.2863 26.6671C53.6144 26.6671 53.9061 26.726 54.1613 26.8436C54.4165 26.9596 54.6187 27.1187 54.7678 27.3209C54.9186 27.5231 54.9982 27.7526 55.0064 28.0095H54.4098ZM57.5596 31.8276V26.7367H58.1761V31.2808H60.5426V31.8276H57.5596ZM67.0643 29.2822C67.0643 29.8191 66.9674 30.2831 66.7735 30.6742C66.5796 31.0653 66.3136 31.3669 65.9756 31.5791C65.6375 31.7912 65.2514 31.8972 64.8172 31.8972C64.383 31.8972 63.9969 31.7912 63.6588 31.5791C63.3207 31.3669 63.0547 31.0653 62.8609 30.6742C62.667 30.2831 62.57 29.8191 62.57 29.2822C62.57 28.7453 62.667 28.2812 62.8609 27.8901C63.0547 27.499 63.3207 27.1974 63.6588 26.9853C63.9969 26.7732 64.383 26.6671 64.8172 26.6671C65.2514 26.6671 65.6375 26.7732 65.9756 26.9853C66.3136 27.1974 66.5796 27.499 66.7735 27.8901C66.9674 28.2812 67.0643 28.7453 67.0643 29.2822ZM66.4677 29.2822C66.4677 28.8414 66.394 28.4693 66.2465 28.1661C66.1007 27.8628 65.9026 27.6333 65.6524 27.4775C65.4038 27.3217 65.1254 27.2438 64.8172 27.2438C64.5089 27.2438 64.2297 27.3217 63.9795 27.4775C63.7309 27.6333 63.5328 27.8628 63.3854 28.1661C63.2395 28.4693 63.1666 28.8414 63.1666 29.2822C63.1666 29.723 63.2395 30.095 63.3854 30.3983C63.5328 30.7016 63.7309 30.9311 63.9795 31.0869C64.2297 31.2426 64.5089 31.3205 64.8172 31.3205C65.1254 31.3205 65.4038 31.2426 65.6524 31.0869C65.9026 30.9311 66.1007 30.7016 66.2465 30.3983C66.394 30.095 66.4677 29.723 66.4677 29.2822ZM73.051 28.3276C72.9963 28.1603 72.9242 28.0103 72.8348 27.8777C72.7469 27.7435 72.6417 27.6291 72.5191 27.5347C72.3981 27.4402 72.2605 27.3681 72.1064 27.3184C71.9523 27.2687 71.7833 27.2438 71.5993 27.2438C71.2977 27.2438 71.0234 27.3217 70.7765 27.4775C70.5296 27.6333 70.3332 27.8628 70.1874 28.1661C70.0416 28.4693 69.9686 28.8414 69.9686 29.2822C69.9686 29.723 70.0424 30.095 70.1899 30.3983C70.3374 30.7016 70.5371 30.9311 70.789 31.0869C71.0408 31.2426 71.3242 31.3205 71.6391 31.3205C71.9308 31.3205 72.1876 31.2584 72.4097 31.1341C72.6334 31.0082 72.8074 30.8308 72.9317 30.6021C73.0577 30.3718 73.1206 30.1008 73.1206 29.7893L73.3095 29.8291H71.7783V29.2822H73.7172V29.8291C73.7172 30.2483 73.6277 30.6129 73.4488 30.9228C73.2714 31.2327 73.0262 31.473 72.713 31.6437C72.4014 31.8127 72.0434 31.8972 71.6391 31.8972C71.1883 31.8972 70.7923 31.7912 70.4509 31.5791C70.1112 31.3669 69.846 31.0653 69.6554 30.6742C69.4665 30.2831 69.372 29.8191 69.372 29.2822C69.372 28.8795 69.4259 28.5174 69.5336 28.1959C69.643 27.8727 69.7971 27.5976 69.996 27.3706C70.1948 27.1436 70.4302 26.9696 70.7019 26.8486C70.9737 26.7276 71.2729 26.6671 71.5993 26.6671C71.8678 26.6671 72.118 26.7077 72.35 26.7889C72.5837 26.8685 72.7917 26.982 72.974 27.1295C73.1579 27.2753 73.3112 27.4502 73.4338 27.654C73.5565 27.8562 73.641 28.0807 73.6874 28.3276H73.051ZM76.2946 31.8276H75.6483L77.5177 26.7367H78.154L80.0233 31.8276H79.377L77.8557 27.5421H77.8159L76.2946 31.8276ZM76.5333 29.839H79.1384V30.3859H76.5333V29.839ZM86.3232 26.7367V31.8276H85.7266L82.9525 27.8305H82.9028V31.8276H82.2863V26.7367H82.8829L85.667 30.7438H85.7167V26.7367H86.3232ZM94.0366 31.8276H92.4656V26.7367H94.1062C94.6 26.7367 95.0226 26.8386 95.3739 27.0425C95.7253 27.2447 95.9946 27.5355 96.1818 27.915C96.3691 28.2928 96.4627 28.7453 96.4627 29.2722C96.4627 29.8025 96.3683 30.2591 96.1793 30.6419C95.9904 31.0231 95.7153 31.3164 95.3541 31.5219C94.9928 31.7257 94.5536 31.8276 94.0366 31.8276ZM93.082 31.2808H93.9968C94.4177 31.2808 94.7666 31.1996 95.0433 31.0372C95.3201 30.8747 95.5264 30.6436 95.6623 30.3436C95.7982 30.0437 95.8661 29.6865 95.8661 29.2722C95.8661 28.8613 95.799 28.5074 95.6648 28.2108C95.5305 27.9125 95.33 27.6838 95.0632 27.5247C94.7964 27.364 94.4641 27.2836 94.0664 27.2836H93.082V31.2808ZM98.9668 31.8276V26.7367H102.039V27.2836H99.5833V29.0038H101.88V29.5506H99.5833V31.2808H102.079V31.8276H98.9668ZM108.059 31.8276V26.7367H108.676V31.2808H111.042V31.8276H108.059ZM113.997 31.8276H113.35L115.22 26.7367H115.856L117.725 31.8276H117.079L115.558 27.5421H115.518L113.997 31.8276ZM114.235 29.839H116.841V30.3859H114.235V29.839ZM127.464 26.7367V31.8276H126.868L124.093 27.8305H124.044V31.8276H123.427V26.7367H124.024L126.808 30.7438H126.858V26.7367H127.464ZM130.376 31.8276H129.73L131.599 26.7367H132.236L134.105 31.8276H133.459L131.938 27.5421H131.898L130.376 31.8276ZM130.615 29.839H133.22V30.3859H130.615V29.839ZM140.405 26.7367V31.8276H139.808L137.034 27.8305H136.985V31.8276H136.368V26.7367H136.965L139.749 30.7438H139.799V26.7367H140.405ZM147.404 29.2822C147.404 29.8191 147.307 30.2831 147.113 30.6742C146.919 31.0653 146.653 31.3669 146.315 31.5791C145.977 31.7912 145.591 31.8972 145.157 31.8972C144.723 31.8972 144.337 31.7912 143.999 31.5791C143.66 31.3669 143.395 31.0653 143.201 30.6742C143.007 30.2831 142.91 29.8191 142.91 29.2822C142.91 28.7453 143.007 28.2812 143.201 27.8901C143.395 27.499 143.66 27.1974 143.999 26.9853C144.337 26.7732 144.723 26.6671 145.157 26.6671C145.591 26.6671 145.977 26.7732 146.315 26.9853C146.653 27.1974 146.919 27.499 147.113 27.8901C147.307 28.2812 147.404 28.7453 147.404 29.2822ZM146.808 29.2822C146.808 28.8414 146.734 28.4693 146.586 28.1661C146.44 27.8628 146.242 27.6333 145.992 27.4775C145.744 27.3217 145.465 27.2438 145.157 27.2438C144.849 27.2438 144.569 27.3217 144.319 27.4775C144.071 27.6333 143.873 27.8628 143.725 28.1661C143.579 28.4693 143.506 28.8414 143.506 29.2822C143.506 29.723 143.579 30.095 143.725 30.3983C143.873 30.7016 144.071 30.9311 144.319 31.0869C144.569 31.2426 144.849 31.3205 145.157 31.3205C145.465 31.3205 145.744 31.2426 145.992 31.0869C146.242 30.9311 146.44 30.7016 146.586 30.3983C146.734 30.095 146.808 29.723 146.808 29.2822ZM153.349 31.8276V26.7367H155.129C155.484 26.7367 155.776 26.798 156.007 26.9207C156.237 27.0417 156.409 27.2049 156.521 27.4104C156.634 27.6142 156.69 27.8404 156.69 28.089C156.69 28.3078 156.651 28.4884 156.574 28.6309C156.497 28.7734 156.396 28.8861 156.27 28.969C156.146 29.0518 156.011 29.1131 155.865 29.1529V29.2026C156.021 29.2126 156.177 29.2673 156.335 29.3667C156.492 29.4661 156.624 29.6086 156.73 29.7943C156.836 29.9799 156.889 30.2069 156.889 30.4754C156.889 30.7306 156.831 30.9601 156.715 31.1639C156.599 31.3678 156.416 31.5293 156.166 31.6487C155.916 31.768 155.59 31.8276 155.189 31.8276H153.349ZM153.966 31.2808H155.189C155.592 31.2808 155.877 31.2029 156.047 31.0471C156.217 30.8897 156.303 30.6991 156.303 30.4754C156.303 30.303 156.259 30.1439 156.171 29.9981C156.083 29.8506 155.958 29.7329 155.795 29.6451C155.633 29.5556 155.441 29.5109 155.219 29.5109H153.966V31.2808ZM153.966 28.9739H155.109C155.295 28.9739 155.462 28.9375 155.611 28.8646C155.762 28.7917 155.882 28.6889 155.969 28.5563C156.059 28.4238 156.104 28.268 156.104 28.089C156.104 27.8653 156.026 27.6755 155.87 27.5198C155.714 27.3623 155.467 27.2836 155.129 27.2836H153.966V28.9739ZM159.581 31.8276H158.935L160.804 26.7367H161.44L163.31 31.8276H162.663L161.142 27.5421H161.102L159.581 31.8276ZM159.82 29.839H162.425V30.3859H159.82V29.839ZM169.61 26.7367V31.8276H169.013L166.239 27.8305H166.189V31.8276H165.573V26.7367H166.169L168.953 30.7438H169.003V26.7367H169.61ZM172.313 31.8276V26.7367H172.93V29.2623H172.989L175.276 26.7367H176.082L173.944 29.0336L176.082 31.8276H175.336L173.566 29.4612L172.93 30.1771V31.8276H172.313Z" fill="#013742"/>
</svg>
